<svg id="visual" viewBox="0 0 960 540" width="960" height="540" xmlns="http://www.w3.org/2000/svg" xmlns:xlink="http://www.w3.org/1999/xlink" version="1.1"><rect x="0" y="0" width="960" height="540" fill="#f6f6f9"></rect><defs><linearGradient id="grad1_0" x1="43.8%" y1="100%" x2="100%" y2="0%"><stop offset="14.444444444444446%" stop-color="#f6f6f9" stop-opacity="1"></stop><stop offset="85.55555555555554%" stop-color="#f6f6f9" stop-opacity="1"></stop></linearGradient></defs><defs><linearGradient id="grad2_0" x1="0%" y1="100%" x2="56.3%" y2="0%"><stop offset="14.444444444444446%" stop-color="#f6f6f9" stop-opacity="1"></stop><stop offset="85.55555555555554%" stop-color="#f6f6f9" stop-opacity="1"></stop></linearGradient></defs><g transform="translate(960, 540)"><path d="M-270 0C-269.8 -39.1 -269.7 -78.2 -249.4 -103.3C-229.2 -128.5 -188.9 -139.7 -162.6 -162.6C-136.4 -185.6 -124.3 -220.4 -99.5 -240.2C-74.7 -260.1 -37.4 -265 0 -270L0 0Z" fill="#7380ec"></path></g><g transform="translate(0, 0)"><path d="M270 0C250.6 28.1 231.3 56.3 221.7 91.8C212.2 127.4 212.4 170.4 190.9 190.9C169.4 211.4 126.1 209.5 90.7 219C55.2 228.4 27.6 249.2 0 270L0 0Z" fill="#7380ec"></path></g></svg>